<svg width="50" height="91" viewBox="0 0 50 91" fill="none" xmlns="http://www.w3.org/2000/svg">
<path d="M34 34L45.3981 76.6191C45.4658 76.872 45.5017 77.1352 45.4953 77.3968C45.39 81.7468 43.4493 83.6227 34.7174 84.9225C28.1267 85.9036 21.3673 85.831 14.8365 84.5086C6.68145 82.8573 4.32361 80.7738 4.03226 77.712C3.98752 77.2418 4.06691 76.7698 4.19875 76.3163L16.5 34C16.9734 30.9466 15.8141 29.741 14 27.5H36.5C34.7774 29.8662 33.6997 31.167 34 34Z" fill="#0F00E2"/>
<g style="mix-blend-mode:color-burn" filter="url(#filter0_f_18_2734)">
<path fill-rule="evenodd" clip-rule="evenodd" d="M14.3555 27.9373C17.2549 26.8002 21.4253 27.8351 27.4868 32.2532C33.1758 46.5209 32.9531 56.9194 32.7773 65.1323C32.666 70.3184 32.5732 74.633 34 78.4999C35.0225 81.2714 35.5034 83.4805 35.541 85.2158C32.9673 85.6747 29.7554 86.0591 25.7583 86.4128C25.0947 86.4715 24.4072 86.4612 23.7461 86.3806C8.26025 84.4905 4.40723 81.7336 4.03174 77.7117C3.98779 77.2415 4.06689 76.7697 4.19873 76.3162L16.5 33.9999C16.9419 31.1512 15.9619 29.9108 14.3555 27.9373Z" fill="black" fill-opacity="0.1"/>
</g>
<g style="mix-blend-mode:color-burn" filter="url(#filter1_f_18_2734)">
<path fill-rule="evenodd" clip-rule="evenodd" d="M5.36474 80.8245C6.24219 80.0038 7.27295 78.9158 8.5 77.5C15 70 25 52.5001 19 30.0001C17.8447 28.9583 16.7754 28.1316 15.7847 27.5H14L14.3022 27.8718C15.9404 29.8837 16.9468 31.1199 16.5 34L4.19873 76.3163C4.06689 76.7698 3.98779 77.2416 4.03174 77.7118C4.13769 78.8472 4.52099 79.8817 5.36474 80.8245Z" fill="black" fill-opacity="0.1"/>
</g>
<g style="mix-blend-mode:color-burn" filter="url(#filter2_f_18_2734)">
<path fill-rule="evenodd" clip-rule="evenodd" d="M36.1032 28.0434C34.6152 30.0818 33.7233 31.3913 33.9999 34L45.398 76.6191C45.4656 76.872 45.5015 77.1349 45.4953 77.3965C45.361 82.9772 42.2299 84.9556 25.7581 86.4128C25.0944 86.4716 24.4073 86.4613 23.7458 86.3806C8.26039 84.4906 4.40729 81.7337 4.03173 77.7118C3.98782 77.2416 4.0668 76.7698 4.19864 76.3163L16.4999 34C16.7403 32.4493 16.5596 31.3752 16.0859 30.4C17.7504 29.225 19.6513 28.2432 21.8355 27.5H35.4682C35.68 27.67 35.8917 27.8513 36.1032 28.0434Z" fill="black" fill-opacity="0.1"/>
</g>
<path d="M10.0075 18.5719C10.0075 27.1743 16.9499 34.1438 25.5188 34.1438C30.4206 34.1438 34.7954 31.8609 37.6341 28.293C39.7651 25.6246 41.0376 22.2532 41.0376 18.5644C41.0376 9.96956 34.0876 3 25.5188 3C22.4617 3 19.6004 3.89198 17.1909 5.44162C12.8688 8.20072 9.99995 13.0462 9.99995 18.5719H10.0075Z" fill="#0F00E2"/>
<g style="mix-blend-mode:lighten" filter="url(#filter3_f_18_2734)">
<path d="M24.7957 13.3939C24.7957 16.7351 27.4914 19.4488 30.8271 19.4488C32.7321 19.4488 34.4338 18.5644 35.5332 17.1735C36.3614 16.1379 36.8584 14.8226 36.8584 13.3939C36.8584 10.0527 34.1627 7.33899 30.8271 7.33899C29.6374 7.33899 28.5305 7.68671 27.5893 8.28389C25.9101 9.35729 24.7957 11.2395 24.7957 13.3863V13.3939Z" fill="#F1F1F8" fill-opacity="0.4"/>
</g>
<g style="mix-blend-mode:color-burn" filter="url(#filter4_f_18_2734)">
<path d="M16.6861 5.78174C14.2916 8.72982 12.989 12.4187 13.5763 16.5536C14.9994 27.9604 27.431 31.5661 37.8823 27.9528C37.7995 28.0662 37.7167 28.1871 37.6338 28.293C34.7951 31.8609 30.4203 34.1438 25.5185 34.1438C16.9496 34.1438 10.0072 27.1667 10.0072 18.5719C10.0072 13.2653 12.6576 8.58619 16.6936 5.78174H16.6861Z" fill="#1A0055" fill-opacity="0.4"/>
</g>
<g style="mix-blend-mode:color-burn" filter="url(#filter5_f_18_2734)">
<path d="M16.6861 5.78176C16.8518 5.66837 17.0175 5.54743 17.1906 5.4416C17.6725 5.13167 18.177 4.85198 18.6966 4.59497C14.3218 11.0959 16.8819 20.439 22.9208 25.1559C27.9507 28.036 32.973 27.5976 38.6128 26.9021C38.3794 27.265 38.1384 27.6202 37.8824 27.9604C27.4311 31.5737 14.9995 27.968 13.5764 16.5612C12.989 12.4263 14.2917 8.7374 16.6861 5.78932V5.78176Z" fill="#190055" fill-opacity="0.2"/>
</g>
<g style="mix-blend-mode:soft-light" filter="url(#filter6_df_18_2734)">
<path d="M21.4764 52.9257C20.462 60.0645 19.5954 65.4426 18 68.1422C18.3851 66.1258 19.9256 60.1515 20.9401 53.0127C21.9545 45.8739 22.3662 40.9338 22.4573 40.0651C22.8131 41.4736 22.4908 45.7869 21.4764 52.9257Z" fill="white" fill-opacity="0.7" shape-rendering="crispEdges"/>
</g>
<defs>
<filter id="filter0_f_18_2734" x="0.0195312" y="23.5105" width="39.5215" height="66.9397" filterUnits="userSpaceOnUse" color-interpolation-filters="sRGB">
<feFlood flood-opacity="0" result="BackgroundImageFix"/>
<feBlend mode="normal" in="SourceGraphic" in2="BackgroundImageFix" result="shape"/>
<feGaussianBlur stdDeviation="2" result="effect1_foregroundBlur_18_2734"/>
</filter>
<filter id="filter1_f_18_2734" x="0.0195312" y="23.5" width="24.8257" height="61.3245" filterUnits="userSpaceOnUse" color-interpolation-filters="sRGB">
<feFlood flood-opacity="0" result="BackgroundImageFix"/>
<feBlend mode="normal" in="SourceGraphic" in2="BackgroundImageFix" result="shape"/>
<feGaussianBlur stdDeviation="2" result="effect1_foregroundBlur_18_2734"/>
</filter>
<filter id="filter2_f_18_2734" x="0.0195312" y="23.5" width="49.4766" height="66.9502" filterUnits="userSpaceOnUse" color-interpolation-filters="sRGB">
<feFlood flood-opacity="0" result="BackgroundImageFix"/>
<feBlend mode="normal" in="SourceGraphic" in2="BackgroundImageFix" result="shape"/>
<feGaussianBlur stdDeviation="2" result="effect1_foregroundBlur_18_2734"/>
</filter>
<filter id="filter3_f_18_2734" x="20.7959" y="3.33899" width="20.0625" height="20.1099" filterUnits="userSpaceOnUse" color-interpolation-filters="sRGB">
<feFlood flood-opacity="0" result="BackgroundImageFix"/>
<feBlend mode="normal" in="SourceGraphic" in2="BackgroundImageFix" result="shape"/>
<feGaussianBlur stdDeviation="2" result="effect1_foregroundBlur_18_2734"/>
</filter>
<filter id="filter4_f_18_2734" x="6.00732" y="1.78174" width="35.875" height="36.3621" filterUnits="userSpaceOnUse" color-interpolation-filters="sRGB">
<feFlood flood-opacity="0" result="BackgroundImageFix"/>
<feBlend mode="normal" in="SourceGraphic" in2="BackgroundImageFix" result="shape"/>
<feGaussianBlur stdDeviation="2" result="effect1_foregroundBlur_18_2734"/>
</filter>
<filter id="filter5_f_18_2734" x="9.43652" y="0.594971" width="33.1763" height="32.7129" filterUnits="userSpaceOnUse" color-interpolation-filters="sRGB">
<feFlood flood-opacity="0" result="BackgroundImageFix"/>
<feBlend mode="normal" in="SourceGraphic" in2="BackgroundImageFix" result="shape"/>
<feGaussianBlur stdDeviation="2" result="effect1_foregroundBlur_18_2734"/>
</filter>
<filter id="filter6_df_18_2734" x="14" y="39.0651" width="12.5972" height="37.0771" filterUnits="userSpaceOnUse" color-interpolation-filters="sRGB">
<feFlood flood-opacity="0" result="BackgroundImageFix"/>
<feColorMatrix in="SourceAlpha" type="matrix" values="0 0 0 0 0 0 0 0 0 0 0 0 0 0 0 0 0 0 127 0" result="hardAlpha"/>
<feOffset dy="4"/>
<feGaussianBlur stdDeviation="2"/>
<feComposite in2="hardAlpha" operator="out"/>
<feColorMatrix type="matrix" values="0 0 0 0 0 0 0 0 0 0 0 0 0 0 0 0 0 0 0.25 0"/>
<feBlend mode="normal" in2="BackgroundImageFix" result="effect1_dropShadow_18_2734"/>
<feBlend mode="normal" in="SourceGraphic" in2="effect1_dropShadow_18_2734" result="shape"/>
<feGaussianBlur stdDeviation="0.5" result="effect2_foregroundBlur_18_2734"/>
</filter>
</defs>
</svg>
