<?xml version="1.0" encoding="UTF-8"?>
<svg id="_Слой_2" data-name="Слой 2" xmlns="http://www.w3.org/2000/svg" viewBox="0 0 262.61 216.57">
  <defs>
    <style>
      .cls-1 {
        stroke-width: 0px;
      }
    </style>
  </defs>
  <g id="_Слой_1-2" data-name="Слой 1">
    <g>
      <path class="cls-1" d="m242.23,132.63c-4.38,0-7.94-3.56-7.94-7.94s3.56-7.94,7.94-7.94,7.94,3.56,7.94,7.94-3.56,7.94-7.94,7.94Zm0-13.5c-3.07,0-5.56,2.5-5.56,5.56s2.5,5.56,5.56,5.56,5.56-2.5,5.56-5.56-2.5-5.56-5.56-5.56Z"/>
      <polygon class="cls-1" points="242.18 117.67 239.81 117.67 240.01 90.18 242.36 88.82 242.18 117.67"/>
      <g>
        <path class="cls-1" d="m214.53,53.53c-2.6-1.63-6.04-.84-7.67,1.76-1.63,2.6-.84,6.04,1.76,7.67,2.6,1.63,6.04.84,7.67-1.76,1.63-2.6.84-6.04-1.76-7.67Z"/>
        <path class="cls-1" d="m250.38,84.21l-33.83-19.79c-2.56,2.06-6.25,2.39-9.19.54-3.71-2.33-4.83-7.23-2.51-10.94,2.33-3.71,7.23-4.83,10.94-2.51,3.87,2.43,4.46,7.34,2.54,10.98l34.37,20.38,9.91-5.71L131,0,0,76.76l38.18,23.23.2,61.41,92.43,55.16,93.21-55.16v-62.02l15.98-9.2-105.73-61.83,2.58-1.5,104.74,61.48.75.49,8.02-4.6Zm-39.28-7.05l-80.2,47.27-13.33-8.48-.2-16.56,37.98-22.63-25.23-14.3-38.86,22.18v46.2l39.38,22.97,66.72-38.87.2,31.31-66.26,39.39-66.26-38.18v-61.7l-14.14-9,80.4-46.66,79.79,47.07Z"/>
      </g>
    </g>
  </g>
</svg>