<svg width="50" height="91" viewBox="0 0 50 91" fill="none" xmlns="http://www.w3.org/2000/svg">
<path d="M34 34L45.3981 76.6191C45.4658 76.872 45.5017 77.1352 45.4953 77.3968C45.39 81.7468 43.4493 83.6227 34.7174 84.9225C28.1267 85.9036 21.3673 85.831 14.8365 84.5086C6.68145 82.8573 4.32361 80.7738 4.03226 77.712C3.98752 77.2418 4.06691 76.7698 4.19875 76.3163L16.5 34C16.9734 30.9466 15.8141 29.741 14 27.5H36.5C34.7774 29.8662 33.6997 31.167 34 34Z" fill="#E6E6E6"/>
<g style="mix-blend-mode:color-burn" filter="url(#filter0_f_18_2786)">
<path fill-rule="evenodd" clip-rule="evenodd" d="M14.3554 27.9373C17.2549 26.8002 21.4254 27.8352 27.4867 32.2533C33.1758 46.5211 32.9529 56.9195 32.7769 65.1323C32.6657 70.3184 32.5732 74.633 33.9999 78.5C35.0224 81.2714 35.503 83.4806 35.5407 85.2158C32.9669 85.6749 29.7553 86.0592 25.7581 86.4128C25.0944 86.4715 24.4073 86.4613 23.7458 86.3805C8.26039 84.4906 4.40729 81.7336 4.03173 77.7118C3.98782 77.2415 4.0668 76.7698 4.19864 76.3163L16.4999 34C16.9416 31.1512 15.962 29.9108 14.3554 27.9373Z" fill="#888888" fill-opacity="0.1"/>
</g>
<g style="mix-blend-mode:color-burn" filter="url(#filter1_f_18_2786)">
<path fill-rule="evenodd" clip-rule="evenodd" d="M5.36461 80.8244C6.24183 80.0038 7.27294 78.9157 8.49989 77.5C14.9999 70 24.9999 52.5001 19 30.0001C17.8448 28.9583 16.7755 28.1315 15.7848 27.5H13.9999C14.1026 27.6269 14.2033 27.7505 14.3016 27.8713C15.94 29.8835 16.9465 31.1196 16.4999 34L4.19864 76.3163C4.0668 76.7698 3.98782 77.2416 4.03173 77.7118C4.13775 78.8471 4.52089 79.8817 5.36461 80.8244Z" fill="#5E5E5E" fill-opacity="0.1"/>
</g>
<g style="mix-blend-mode:color-burn" filter="url(#filter2_f_18_2786)">
<path fill-rule="evenodd" clip-rule="evenodd" d="M36.1032 28.0434C34.6152 30.0818 33.7233 31.3913 33.9999 34L45.398 76.6191C45.4656 76.872 45.5015 77.1349 45.4953 77.3965C45.361 82.9772 42.2299 84.9556 25.7581 86.4128C25.0944 86.4716 24.4073 86.4613 23.7458 86.3806C8.26039 84.4906 4.40729 81.7337 4.03173 77.7118C3.98782 77.2416 4.0668 76.7698 4.19864 76.3163L16.4999 34C16.7403 32.4493 16.5596 31.3752 16.0859 30.4C17.7504 29.225 19.6513 28.2432 21.8355 27.5H35.4682C35.68 27.67 35.8917 27.8513 36.1032 28.0434Z" fill="#878787" fill-opacity="0.1"/>
</g>
<path d="M10.0075 18.5719C10.0075 27.1743 16.9499 34.1438 25.5188 34.1438C30.4206 34.1438 34.7954 31.8609 37.6341 28.293C39.7651 25.6246 41.0376 22.2532 41.0376 18.5644C41.0376 9.96956 34.0876 3 25.5188 3C22.4617 3 19.6004 3.89198 17.1909 5.44162C12.8688 8.20072 9.99995 13.0462 9.99995 18.5719H10.0075Z" fill="#E6E6E6"/>
<g style="mix-blend-mode:lighten" filter="url(#filter3_f_18_2786)">
<path d="M24.7957 13.3939C24.7957 16.7351 27.4914 19.4488 30.8271 19.4488C32.7321 19.4488 34.4338 18.5644 35.5332 17.1735C36.3614 16.1379 36.8584 14.8226 36.8584 13.3939C36.8584 10.0527 34.1627 7.33899 30.8271 7.33899C29.6374 7.33899 28.5305 7.68671 27.5893 8.28389C25.9101 9.35729 24.7957 11.2395 24.7957 13.3863V13.3939Z" fill="#C6C6C6" fill-opacity="0.4"/>
</g>
<g style="mix-blend-mode:color-burn" filter="url(#filter4_f_18_2786)">
<path d="M16.6861 5.78174C14.2916 8.72982 12.989 12.4187 13.5763 16.5536C14.9994 27.9604 27.431 31.5661 37.8823 27.9528C37.7995 28.0662 37.7167 28.1871 37.6338 28.293C34.7951 31.8609 30.4203 34.1438 25.5185 34.1438C16.9496 34.1438 10.0072 27.1667 10.0072 18.5719C10.0072 13.2653 12.6576 8.58619 16.6936 5.78174H16.6861Z" fill="#707070" fill-opacity="0.4"/>
</g>
<g style="mix-blend-mode:color-burn" filter="url(#filter5_f_18_2786)">
<path d="M16.6861 5.78176C16.8518 5.66837 17.0175 5.54743 17.1906 5.4416C17.6725 5.13167 18.177 4.85198 18.6966 4.59497C14.3218 11.0959 16.8819 20.439 22.9208 25.1559C27.9507 28.036 32.973 27.5976 38.6128 26.9021C38.3794 27.265 38.1384 27.6202 37.8824 27.9604C27.4311 31.5737 14.9995 27.968 13.5764 16.5612C12.989 12.4263 14.2917 8.7374 16.6861 5.78932V5.78176Z" fill="#707070" fill-opacity="0.2"/>
</g>
<g style="mix-blend-mode:soft-light" filter="url(#filter6_df_18_2786)">
<path d="M21.4764 52.9257C20.462 60.0645 19.5954 65.4426 18 68.1422C18.3851 66.1258 19.9256 60.1515 20.9401 53.0127C21.9545 45.8739 22.3662 40.9338 22.4573 40.0651C22.8131 41.4736 22.4908 45.7869 21.4764 52.9257Z" fill="white" fill-opacity="0.7" shape-rendering="crispEdges"/>
</g>
<defs>
<filter id="filter0_f_18_2786" x="0.0195312" y="23.5105" width="39.521" height="66.9397" filterUnits="userSpaceOnUse" color-interpolation-filters="sRGB">
<feFlood flood-opacity="0" result="BackgroundImageFix"/>
<feBlend mode="normal" in="SourceGraphic" in2="BackgroundImageFix" result="shape"/>
<feGaussianBlur stdDeviation="2" result="effect1_foregroundBlur_18_2786"/>
</filter>
<filter id="filter1_f_18_2786" x="0.0195312" y="23.5" width="24.8252" height="61.3243" filterUnits="userSpaceOnUse" color-interpolation-filters="sRGB">
<feFlood flood-opacity="0" result="BackgroundImageFix"/>
<feBlend mode="normal" in="SourceGraphic" in2="BackgroundImageFix" result="shape"/>
<feGaussianBlur stdDeviation="2" result="effect1_foregroundBlur_18_2786"/>
</filter>
<filter id="filter2_f_18_2786" x="0.0195312" y="23.5" width="49.4766" height="66.9502" filterUnits="userSpaceOnUse" color-interpolation-filters="sRGB">
<feFlood flood-opacity="0" result="BackgroundImageFix"/>
<feBlend mode="normal" in="SourceGraphic" in2="BackgroundImageFix" result="shape"/>
<feGaussianBlur stdDeviation="2" result="effect1_foregroundBlur_18_2786"/>
</filter>
<filter id="filter3_f_18_2786" x="20.7959" y="3.33899" width="20.0625" height="20.1099" filterUnits="userSpaceOnUse" color-interpolation-filters="sRGB">
<feFlood flood-opacity="0" result="BackgroundImageFix"/>
<feBlend mode="normal" in="SourceGraphic" in2="BackgroundImageFix" result="shape"/>
<feGaussianBlur stdDeviation="2" result="effect1_foregroundBlur_18_2786"/>
</filter>
<filter id="filter4_f_18_2786" x="6.00732" y="1.78174" width="35.875" height="36.3621" filterUnits="userSpaceOnUse" color-interpolation-filters="sRGB">
<feFlood flood-opacity="0" result="BackgroundImageFix"/>
<feBlend mode="normal" in="SourceGraphic" in2="BackgroundImageFix" result="shape"/>
<feGaussianBlur stdDeviation="2" result="effect1_foregroundBlur_18_2786"/>
</filter>
<filter id="filter5_f_18_2786" x="9.43652" y="0.594971" width="33.1763" height="32.7129" filterUnits="userSpaceOnUse" color-interpolation-filters="sRGB">
<feFlood flood-opacity="0" result="BackgroundImageFix"/>
<feBlend mode="normal" in="SourceGraphic" in2="BackgroundImageFix" result="shape"/>
<feGaussianBlur stdDeviation="2" result="effect1_foregroundBlur_18_2786"/>
</filter>
<filter id="filter6_df_18_2786" x="14" y="39.0651" width="12.5972" height="37.0771" filterUnits="userSpaceOnUse" color-interpolation-filters="sRGB">
<feFlood flood-opacity="0" result="BackgroundImageFix"/>
<feColorMatrix in="SourceAlpha" type="matrix" values="0 0 0 0 0 0 0 0 0 0 0 0 0 0 0 0 0 0 127 0" result="hardAlpha"/>
<feOffset dy="4"/>
<feGaussianBlur stdDeviation="2"/>
<feComposite in2="hardAlpha" operator="out"/>
<feColorMatrix type="matrix" values="0 0 0 0 0 0 0 0 0 0 0 0 0 0 0 0 0 0 0.25 0"/>
<feBlend mode="normal" in2="BackgroundImageFix" result="effect1_dropShadow_18_2786"/>
<feBlend mode="normal" in="SourceGraphic" in2="effect1_dropShadow_18_2786" result="shape"/>
<feGaussianBlur stdDeviation="0.5" result="effect2_foregroundBlur_18_2786"/>
</filter>
</defs>
</svg>
