{
	"asset":{
		"generator":"Khronos glTF Blender I/O v4.1.62",
		"version":"2.0"
	},
	"scene":0,
	"scenes":[
		{
			"name":"Scene",
			"nodes":[
				0
			]
		}
	],
	"nodes":[
		{
			"mesh":0,
			"name":"\u0416\u0451\u043b\u0442\u0430\u044f_\u0444\u0438\u0433\u0443\u0440\u043a\u0430",
			"scale":[
				0.92289799451828,
				0.92289799451828,
				0.92289799451828
			],
			"translation":[
				0,
				1.2797820568084717,
				0.030910015106201172
			]
		}
	],
	"materials":[
		{
			"doubleSided":true,
			"name":"\u0416\u0435\u043b\u0442\u044b\u0439",
			"pbrMetallicRoughness":{
				"baseColorFactor":[
					0.7319114208221436,
					0.8011963367462158,
					0,
					1
				],
				"metallicFactor":0.30000001192092896,
				"roughnessFactor":0.75
			}
		}
	],
	"meshes":[
		{
			"name":"\u0418\u043a\u043e\u0441\u0444\u0435\u0440\u0430.003",
			"primitives":[
				{
					"attributes":{
						"POSITION":0,
						"NORMAL":1,
						"TEXCOORD_0":2
					},
					"indices":3,
					"material":0
				}
			]
		}
	],
	"accessors":[
		{
			"bufferView":0,
			"componentType":5126,
			"count":2945,
			"max":[
				1.3344521522521973,
				1,
				1.340169072151184
			],
			"min":[
				-1.3344521522521973,
				-3.6545541286468506,
				-1.340169072151184
			],
			"type":"VEC3"
		},
		{
			"bufferView":1,
			"componentType":5126,
			"count":2945,
			"type":"VEC3"
		},
		{
			"bufferView":2,
			"componentType":5126,
			"count":2945,
			"type":"VEC2"
		},
		{
			"bufferView":3,
			"componentType":5123,
			"count":16164,
			"type":"SCALAR"
		}
	],
	"bufferViews":[
		{
			"buffer":0,
			"byteLength":35340,
			"byteOffset":0,
			"target":34962
		},
		{
			"buffer":0,
			"byteLength":35340,
			"byteOffset":35340,
			"target":34962
		},
		{
			"buffer":0,
			"byteLength":23560,
			"byteOffset":70680,
			"target":34962
		},
		{
			"buffer":0,
			"byteLength":32328,
			"byteOffset":94240,
			"target":34963
		}
	],
	"buffers":[
		{
			"byteLength":126568,
			"uri":"Yellow_shape.bin"
		}
	]
}
